<mxfile host="app.diagrams.net" agent="Mozilla/5.0 (Windows NT 10.0; Win64; x64) AppleWebKit/537.36 (KHTML, like Gecko) Chrome/135.0.0.0 Safari/537.36" version="26.2.8">
  <diagram id="C5RBs43oDa-KdzZeNtuy" name="Page-1">
    <mxGraphModel dx="908" dy="494" grid="1" gridSize="10" guides="1" tooltips="1" connect="1" arrows="1" fold="1" page="1" pageScale="1" pageWidth="827" pageHeight="1169" math="0" shadow="0">
      <root>
        <mxCell id="WIyWlLk6GJQsqaUBKTNV-0" />
        <mxCell id="WIyWlLk6GJQsqaUBKTNV-1" parent="WIyWlLk6GJQsqaUBKTNV-0" />
        <mxCell id="JDoU0mqT-Fxx7BkTyrQs-37" value="SHOPNEST&lt;div&gt;HYPERMARKET&lt;/div&gt;" style="rounded=1;whiteSpace=wrap;html=1;" vertex="1" parent="WIyWlLk6GJQsqaUBKTNV-1">
          <mxGeometry x="354" y="30" width="120" height="60" as="geometry" />
        </mxCell>
        <mxCell id="JDoU0mqT-Fxx7BkTyrQs-38" value="Storage" style="rounded=0;whiteSpace=wrap;html=1;" vertex="1" parent="WIyWlLk6GJQsqaUBKTNV-1">
          <mxGeometry x="341" y="270" width="146" height="60" as="geometry" />
        </mxCell>
        <mxCell id="JDoU0mqT-Fxx7BkTyrQs-40" value="&lt;u&gt;Product ID&lt;/u&gt;" style="ellipse;whiteSpace=wrap;html=1;" vertex="1" parent="WIyWlLk6GJQsqaUBKTNV-1">
          <mxGeometry x="290" y="540" width="120" height="60" as="geometry" />
        </mxCell>
        <mxCell id="JDoU0mqT-Fxx7BkTyrQs-47" value="Name" style="ellipse;whiteSpace=wrap;html=1;" vertex="1" parent="WIyWlLk6GJQsqaUBKTNV-1">
          <mxGeometry x="341" y="630" width="120" height="60" as="geometry" />
        </mxCell>
        <mxCell id="JDoU0mqT-Fxx7BkTyrQs-48" value="Cost" style="ellipse;whiteSpace=wrap;html=1;" vertex="1" parent="WIyWlLk6GJQsqaUBKTNV-1">
          <mxGeometry x="650" y="630" width="120" height="60" as="geometry" />
        </mxCell>
        <mxCell id="JDoU0mqT-Fxx7BkTyrQs-49" value="In Stock" style="ellipse;whiteSpace=wrap;html=1;" vertex="1" parent="WIyWlLk6GJQsqaUBKTNV-1">
          <mxGeometry x="700" y="540" width="120" height="60" as="geometry" />
        </mxCell>
        <mxCell id="JDoU0mqT-Fxx7BkTyrQs-50" value="Description" style="ellipse;whiteSpace=wrap;html=1;" vertex="1" parent="WIyWlLk6GJQsqaUBKTNV-1">
          <mxGeometry x="494" y="680" width="120" height="60" as="geometry" />
        </mxCell>
        <mxCell id="JDoU0mqT-Fxx7BkTyrQs-74" style="edgeStyle=orthogonalEdgeStyle;rounded=0;orthogonalLoop=1;jettySize=auto;html=1;exitX=0.5;exitY=1;exitDx=0;exitDy=0;entryX=0.5;entryY=0;entryDx=0;entryDy=0;endArrow=none;startFill=0;" edge="1" parent="WIyWlLk6GJQsqaUBKTNV-1" source="JDoU0mqT-Fxx7BkTyrQs-58" target="JDoU0mqT-Fxx7BkTyrQs-60">
          <mxGeometry relative="1" as="geometry" />
        </mxCell>
        <mxCell id="JDoU0mqT-Fxx7BkTyrQs-58" value="Customer" style="rounded=0;whiteSpace=wrap;html=1;" vertex="1" parent="WIyWlLk6GJQsqaUBKTNV-1">
          <mxGeometry x="2200" y="200" width="120" height="60" as="geometry" />
        </mxCell>
        <mxCell id="JDoU0mqT-Fxx7BkTyrQs-63" value="" style="group" vertex="1" connectable="0" parent="WIyWlLk6GJQsqaUBKTNV-1">
          <mxGeometry x="2200" y="335" width="120" height="80" as="geometry" />
        </mxCell>
        <mxCell id="JDoU0mqT-Fxx7BkTyrQs-60" value="" style="ellipse;whiteSpace=wrap;html=1;fontStyle=1" vertex="1" parent="JDoU0mqT-Fxx7BkTyrQs-63">
          <mxGeometry width="120" height="80" as="geometry" />
        </mxCell>
        <mxCell id="JDoU0mqT-Fxx7BkTyrQs-59" value="Address" style="ellipse;whiteSpace=wrap;html=1;fontStyle=1" vertex="1" parent="JDoU0mqT-Fxx7BkTyrQs-63">
          <mxGeometry x="10" y="10" width="100" height="60" as="geometry" />
        </mxCell>
        <mxCell id="JDoU0mqT-Fxx7BkTyrQs-64" value="Street" style="ellipse;whiteSpace=wrap;html=1;" vertex="1" parent="WIyWlLk6GJQsqaUBKTNV-1">
          <mxGeometry x="2360" y="385" width="90" height="60" as="geometry" />
        </mxCell>
        <mxCell id="JDoU0mqT-Fxx7BkTyrQs-67" value="State" style="ellipse;whiteSpace=wrap;html=1;" vertex="1" parent="WIyWlLk6GJQsqaUBKTNV-1">
          <mxGeometry x="2150" y="460" width="90" height="60" as="geometry" />
        </mxCell>
        <mxCell id="JDoU0mqT-Fxx7BkTyrQs-68" value="City" style="ellipse;whiteSpace=wrap;html=1;" vertex="1" parent="WIyWlLk6GJQsqaUBKTNV-1">
          <mxGeometry x="2280" y="460" width="90" height="60" as="geometry" />
        </mxCell>
        <mxCell id="JDoU0mqT-Fxx7BkTyrQs-69" value="County" style="ellipse;whiteSpace=wrap;html=1;" vertex="1" parent="WIyWlLk6GJQsqaUBKTNV-1">
          <mxGeometry x="2070" y="385" width="90" height="60" as="geometry" />
        </mxCell>
        <mxCell id="JDoU0mqT-Fxx7BkTyrQs-70" value="" style="endArrow=none;html=1;rounded=0;exitX=0;exitY=1;exitDx=0;exitDy=0;entryX=1;entryY=0.5;entryDx=0;entryDy=0;startFill=0;" edge="1" parent="WIyWlLk6GJQsqaUBKTNV-1" source="JDoU0mqT-Fxx7BkTyrQs-60" target="JDoU0mqT-Fxx7BkTyrQs-69">
          <mxGeometry width="50" height="50" relative="1" as="geometry">
            <mxPoint x="1930" y="555" as="sourcePoint" />
            <mxPoint x="1980" y="505" as="targetPoint" />
          </mxGeometry>
        </mxCell>
        <mxCell id="JDoU0mqT-Fxx7BkTyrQs-71" value="" style="endArrow=none;html=1;rounded=0;exitX=1;exitY=1;exitDx=0;exitDy=0;entryX=0;entryY=0.5;entryDx=0;entryDy=0;startFill=0;" edge="1" parent="WIyWlLk6GJQsqaUBKTNV-1" source="JDoU0mqT-Fxx7BkTyrQs-60" target="JDoU0mqT-Fxx7BkTyrQs-64">
          <mxGeometry width="50" height="50" relative="1" as="geometry">
            <mxPoint x="2210" y="595" as="sourcePoint" />
            <mxPoint x="2260" y="545" as="targetPoint" />
          </mxGeometry>
        </mxCell>
        <mxCell id="JDoU0mqT-Fxx7BkTyrQs-72" value="" style="endArrow=none;html=1;rounded=0;exitX=0.5;exitY=1;exitDx=0;exitDy=0;entryX=1;entryY=0;entryDx=0;entryDy=0;startFill=0;" edge="1" parent="WIyWlLk6GJQsqaUBKTNV-1" source="JDoU0mqT-Fxx7BkTyrQs-60" target="JDoU0mqT-Fxx7BkTyrQs-67">
          <mxGeometry width="50" height="50" relative="1" as="geometry">
            <mxPoint x="2220" y="605" as="sourcePoint" />
            <mxPoint x="2270" y="555" as="targetPoint" />
          </mxGeometry>
        </mxCell>
        <mxCell id="JDoU0mqT-Fxx7BkTyrQs-73" value="" style="endArrow=none;html=1;rounded=0;exitX=0.5;exitY=1;exitDx=0;exitDy=0;entryX=0;entryY=0;entryDx=0;entryDy=0;startFill=0;" edge="1" parent="WIyWlLk6GJQsqaUBKTNV-1" source="JDoU0mqT-Fxx7BkTyrQs-60" target="JDoU0mqT-Fxx7BkTyrQs-68">
          <mxGeometry width="50" height="50" relative="1" as="geometry">
            <mxPoint x="2250" y="655" as="sourcePoint" />
            <mxPoint x="2300" y="605" as="targetPoint" />
          </mxGeometry>
        </mxCell>
        <mxCell id="JDoU0mqT-Fxx7BkTyrQs-75" value="Customer ID" style="ellipse;whiteSpace=wrap;html=1;" vertex="1" parent="WIyWlLk6GJQsqaUBKTNV-1">
          <mxGeometry x="2030" y="275" width="120" height="80" as="geometry" />
        </mxCell>
        <mxCell id="JDoU0mqT-Fxx7BkTyrQs-77" value="" style="endArrow=none;html=1;rounded=0;exitX=0;exitY=1;exitDx=0;exitDy=0;entryX=1;entryY=0;entryDx=0;entryDy=0;startFill=0;" edge="1" parent="WIyWlLk6GJQsqaUBKTNV-1" source="JDoU0mqT-Fxx7BkTyrQs-58" target="JDoU0mqT-Fxx7BkTyrQs-75">
          <mxGeometry width="50" height="50" relative="1" as="geometry">
            <mxPoint x="2290" y="355" as="sourcePoint" />
            <mxPoint x="2340" y="305" as="targetPoint" />
          </mxGeometry>
        </mxCell>
        <mxCell id="JDoU0mqT-Fxx7BkTyrQs-78" value="Name" style="ellipse;whiteSpace=wrap;html=1;" vertex="1" parent="WIyWlLk6GJQsqaUBKTNV-1">
          <mxGeometry x="2370" y="275" width="120" height="80" as="geometry" />
        </mxCell>
        <mxCell id="JDoU0mqT-Fxx7BkTyrQs-79" value="" style="endArrow=none;html=1;rounded=0;exitX=1;exitY=1;exitDx=0;exitDy=0;entryX=0;entryY=0;entryDx=0;entryDy=0;startFill=0;" edge="1" parent="WIyWlLk6GJQsqaUBKTNV-1" source="JDoU0mqT-Fxx7BkTyrQs-58" target="JDoU0mqT-Fxx7BkTyrQs-78">
          <mxGeometry width="50" height="50" relative="1" as="geometry">
            <mxPoint x="2380" y="275" as="sourcePoint" />
            <mxPoint x="2430" y="225" as="targetPoint" />
          </mxGeometry>
        </mxCell>
        <mxCell id="JDoU0mqT-Fxx7BkTyrQs-81" value="Product" style="rounded=0;whiteSpace=wrap;html=1;" vertex="1" parent="WIyWlLk6GJQsqaUBKTNV-1">
          <mxGeometry x="494" y="540" width="120" height="60" as="geometry" />
        </mxCell>
        <mxCell id="JDoU0mqT-Fxx7BkTyrQs-82" value="Stores" style="rhombus;whiteSpace=wrap;html=1;" vertex="1" parent="WIyWlLk6GJQsqaUBKTNV-1">
          <mxGeometry x="514" y="390" width="80" height="80" as="geometry" />
        </mxCell>
        <mxCell id="JDoU0mqT-Fxx7BkTyrQs-88" value="Employee" style="rounded=0;whiteSpace=wrap;html=1;" vertex="1" parent="WIyWlLk6GJQsqaUBKTNV-1">
          <mxGeometry x="930" y="280" width="120" height="60" as="geometry" />
        </mxCell>
        <mxCell id="JDoU0mqT-Fxx7BkTyrQs-89" value="Customer Area" style="rounded=0;whiteSpace=wrap;html=1;" vertex="1" parent="WIyWlLk6GJQsqaUBKTNV-1">
          <mxGeometry x="1395" y="634" width="160" height="60" as="geometry" />
        </mxCell>
        <mxCell id="JDoU0mqT-Fxx7BkTyrQs-90" value="Take Products" style="rhombus;whiteSpace=wrap;html=1;" vertex="1" parent="WIyWlLk6GJQsqaUBKTNV-1">
          <mxGeometry x="720" y="390" width="130" height="80" as="geometry" />
        </mxCell>
        <mxCell id="JDoU0mqT-Fxx7BkTyrQs-92" value="" style="endArrow=none;html=1;rounded=0;entryX=1;entryY=0.5;entryDx=0;entryDy=0;exitX=0;exitY=0.5;exitDx=0;exitDy=0;" edge="1" parent="WIyWlLk6GJQsqaUBKTNV-1" source="JDoU0mqT-Fxx7BkTyrQs-81" target="JDoU0mqT-Fxx7BkTyrQs-40">
          <mxGeometry width="50" height="50" relative="1" as="geometry">
            <mxPoint x="450" y="620" as="sourcePoint" />
            <mxPoint x="500" y="570" as="targetPoint" />
          </mxGeometry>
        </mxCell>
        <mxCell id="JDoU0mqT-Fxx7BkTyrQs-93" value="" style="endArrow=none;html=1;rounded=0;entryX=0;entryY=1;entryDx=0;entryDy=0;" edge="1" parent="WIyWlLk6GJQsqaUBKTNV-1" target="JDoU0mqT-Fxx7BkTyrQs-81">
          <mxGeometry width="50" height="50" relative="1" as="geometry">
            <mxPoint x="450" y="640" as="sourcePoint" />
            <mxPoint x="490" y="600" as="targetPoint" />
          </mxGeometry>
        </mxCell>
        <mxCell id="JDoU0mqT-Fxx7BkTyrQs-94" value="" style="endArrow=none;html=1;rounded=0;entryX=0.5;entryY=1;entryDx=0;entryDy=0;exitX=0.5;exitY=0;exitDx=0;exitDy=0;" edge="1" parent="WIyWlLk6GJQsqaUBKTNV-1" source="JDoU0mqT-Fxx7BkTyrQs-50" target="JDoU0mqT-Fxx7BkTyrQs-81">
          <mxGeometry width="50" height="50" relative="1" as="geometry">
            <mxPoint x="490" y="710" as="sourcePoint" />
            <mxPoint x="540" y="660" as="targetPoint" />
          </mxGeometry>
        </mxCell>
        <mxCell id="JDoU0mqT-Fxx7BkTyrQs-95" value="" style="endArrow=none;html=1;rounded=0;entryX=1;entryY=0.5;entryDx=0;entryDy=0;exitX=0;exitY=0.5;exitDx=0;exitDy=0;" edge="1" parent="WIyWlLk6GJQsqaUBKTNV-1" source="JDoU0mqT-Fxx7BkTyrQs-49" target="JDoU0mqT-Fxx7BkTyrQs-81">
          <mxGeometry width="50" height="50" relative="1" as="geometry">
            <mxPoint x="590" y="650" as="sourcePoint" />
            <mxPoint x="640" y="600" as="targetPoint" />
          </mxGeometry>
        </mxCell>
        <mxCell id="JDoU0mqT-Fxx7BkTyrQs-96" value="" style="endArrow=none;html=1;rounded=0;entryX=1;entryY=1;entryDx=0;entryDy=0;exitX=0;exitY=0;exitDx=0;exitDy=0;" edge="1" parent="WIyWlLk6GJQsqaUBKTNV-1" source="JDoU0mqT-Fxx7BkTyrQs-48" target="JDoU0mqT-Fxx7BkTyrQs-81">
          <mxGeometry width="50" height="50" relative="1" as="geometry">
            <mxPoint x="560" y="690" as="sourcePoint" />
            <mxPoint x="610" y="640" as="targetPoint" />
          </mxGeometry>
        </mxCell>
        <mxCell id="JDoU0mqT-Fxx7BkTyrQs-97" value="n" style="endArrow=none;html=1;rounded=0;entryX=0.5;entryY=1;entryDx=0;entryDy=0;exitX=0.5;exitY=0;exitDx=0;exitDy=0;" edge="1" parent="WIyWlLk6GJQsqaUBKTNV-1" source="JDoU0mqT-Fxx7BkTyrQs-81" target="JDoU0mqT-Fxx7BkTyrQs-82">
          <mxGeometry width="50" height="50" relative="1" as="geometry">
            <mxPoint x="550" y="530" as="sourcePoint" />
            <mxPoint x="450" y="480" as="targetPoint" />
          </mxGeometry>
        </mxCell>
        <mxCell id="JDoU0mqT-Fxx7BkTyrQs-98" value="" style="endArrow=none;html=1;rounded=0;exitX=1;exitY=0.5;exitDx=0;exitDy=0;entryX=0.5;entryY=0;entryDx=0;entryDy=0;" edge="1" parent="WIyWlLk6GJQsqaUBKTNV-1" source="JDoU0mqT-Fxx7BkTyrQs-38" target="JDoU0mqT-Fxx7BkTyrQs-82">
          <mxGeometry width="50" height="50" relative="1" as="geometry">
            <mxPoint x="610" y="390" as="sourcePoint" />
            <mxPoint x="660" y="340" as="targetPoint" />
            <Array as="points">
              <mxPoint x="554" y="300" />
            </Array>
          </mxGeometry>
        </mxCell>
        <mxCell id="JDoU0mqT-Fxx7BkTyrQs-100" value="&amp;nbsp;1&amp;nbsp;" style="edgeLabel;html=1;align=center;verticalAlign=middle;resizable=0;points=[];" vertex="1" connectable="0" parent="JDoU0mqT-Fxx7BkTyrQs-98">
          <mxGeometry x="-0.5954" y="-2" relative="1" as="geometry">
            <mxPoint as="offset" />
          </mxGeometry>
        </mxCell>
        <mxCell id="JDoU0mqT-Fxx7BkTyrQs-101" value="n" style="endArrow=none;html=1;rounded=0;exitX=1;exitY=0;exitDx=0;exitDy=0;entryX=0;entryY=1;entryDx=0;entryDy=0;" edge="1" parent="WIyWlLk6GJQsqaUBKTNV-1" source="JDoU0mqT-Fxx7BkTyrQs-81" target="JDoU0mqT-Fxx7BkTyrQs-90">
          <mxGeometry width="50" height="50" relative="1" as="geometry">
            <mxPoint x="710" y="500" as="sourcePoint" />
            <mxPoint x="760" y="450" as="targetPoint" />
          </mxGeometry>
        </mxCell>
        <mxCell id="JDoU0mqT-Fxx7BkTyrQs-102" value="n" style="endArrow=none;html=1;rounded=0;exitX=1;exitY=0;exitDx=0;exitDy=0;entryX=0;entryY=1;entryDx=0;entryDy=0;" edge="1" parent="WIyWlLk6GJQsqaUBKTNV-1" source="JDoU0mqT-Fxx7BkTyrQs-90" target="JDoU0mqT-Fxx7BkTyrQs-88">
          <mxGeometry width="50" height="50" relative="1" as="geometry">
            <mxPoint x="710" y="500" as="sourcePoint" />
            <mxPoint x="760" y="450" as="targetPoint" />
          </mxGeometry>
        </mxCell>
        <mxCell id="JDoU0mqT-Fxx7BkTyrQs-103" value="Restocks" style="rhombus;whiteSpace=wrap;html=1;" vertex="1" parent="WIyWlLk6GJQsqaUBKTNV-1">
          <mxGeometry x="1000" y="510" width="110" height="80" as="geometry" />
        </mxCell>
        <mxCell id="JDoU0mqT-Fxx7BkTyrQs-104" value="" style="endArrow=none;html=1;rounded=0;entryX=1;entryY=1;entryDx=0;entryDy=0;exitX=0;exitY=0;exitDx=0;exitDy=0;" edge="1" parent="WIyWlLk6GJQsqaUBKTNV-1" source="JDoU0mqT-Fxx7BkTyrQs-103" target="JDoU0mqT-Fxx7BkTyrQs-90">
          <mxGeometry width="50" height="50" relative="1" as="geometry">
            <mxPoint x="710" y="500" as="sourcePoint" />
            <mxPoint x="760" y="450" as="targetPoint" />
          </mxGeometry>
        </mxCell>
        <mxCell id="JDoU0mqT-Fxx7BkTyrQs-108" value="Product" style="rounded=0;whiteSpace=wrap;html=1;" vertex="1" parent="WIyWlLk6GJQsqaUBKTNV-1">
          <mxGeometry x="1415" y="850" width="120" height="60" as="geometry" />
        </mxCell>
        <mxCell id="JDoU0mqT-Fxx7BkTyrQs-109" value="IS" style="rhombus;whiteSpace=wrap;html=1;" vertex="1" parent="WIyWlLk6GJQsqaUBKTNV-1">
          <mxGeometry x="870" y="620" width="130" height="80" as="geometry" />
        </mxCell>
        <mxCell id="JDoU0mqT-Fxx7BkTyrQs-110" value="" style="endArrow=none;html=1;rounded=0;exitX=1;exitY=1;exitDx=0;exitDy=0;entryX=0;entryY=0.5;entryDx=0;entryDy=0;" edge="1" parent="WIyWlLk6GJQsqaUBKTNV-1" source="JDoU0mqT-Fxx7BkTyrQs-109" target="JDoU0mqT-Fxx7BkTyrQs-108">
          <mxGeometry width="50" height="50" relative="1" as="geometry">
            <mxPoint x="960" y="690" as="sourcePoint" />
            <mxPoint x="1010" y="640" as="targetPoint" />
          </mxGeometry>
        </mxCell>
        <mxCell id="JDoU0mqT-Fxx7BkTyrQs-111" value="&amp;nbsp;1&amp;nbsp;" style="edgeLabel;html=1;align=center;verticalAlign=middle;resizable=0;points=[];" vertex="1" connectable="0" parent="JDoU0mqT-Fxx7BkTyrQs-110">
          <mxGeometry x="-0.0154" y="4" relative="1" as="geometry">
            <mxPoint as="offset" />
          </mxGeometry>
        </mxCell>
        <mxCell id="JDoU0mqT-Fxx7BkTyrQs-112" value="" style="endArrow=none;html=1;rounded=0;exitX=0.077;exitY=0.375;exitDx=0;exitDy=0;entryX=1;entryY=0.75;entryDx=0;entryDy=0;exitPerimeter=0;" edge="1" parent="WIyWlLk6GJQsqaUBKTNV-1" source="JDoU0mqT-Fxx7BkTyrQs-109" target="JDoU0mqT-Fxx7BkTyrQs-81">
          <mxGeometry width="50" height="50" relative="1" as="geometry">
            <mxPoint x="960" y="690" as="sourcePoint" />
            <mxPoint x="1010" y="640" as="targetPoint" />
          </mxGeometry>
        </mxCell>
        <mxCell id="JDoU0mqT-Fxx7BkTyrQs-113" value="&amp;nbsp;1&amp;nbsp;" style="edgeLabel;html=1;align=center;verticalAlign=middle;resizable=0;points=[];" vertex="1" connectable="0" parent="JDoU0mqT-Fxx7BkTyrQs-112">
          <mxGeometry x="-0.5594" y="-1" relative="1" as="geometry">
            <mxPoint as="offset" />
          </mxGeometry>
        </mxCell>
        <mxCell id="JDoU0mqT-Fxx7BkTyrQs-114" value="" style="endArrow=none;html=1;rounded=0;entryX=0.5;entryY=1;entryDx=0;entryDy=0;exitX=0.5;exitY=0;exitDx=0;exitDy=0;" edge="1" parent="WIyWlLk6GJQsqaUBKTNV-1" source="JDoU0mqT-Fxx7BkTyrQs-122" target="JDoU0mqT-Fxx7BkTyrQs-89">
          <mxGeometry width="50" height="50" relative="1" as="geometry">
            <mxPoint x="1265" y="820" as="sourcePoint" />
            <mxPoint x="1315" y="770" as="targetPoint" />
          </mxGeometry>
        </mxCell>
        <mxCell id="JDoU0mqT-Fxx7BkTyrQs-123" value="1" style="edgeLabel;html=1;align=center;verticalAlign=middle;resizable=0;points=[];" vertex="1" connectable="0" parent="JDoU0mqT-Fxx7BkTyrQs-114">
          <mxGeometry x="0.8543" relative="1" as="geometry">
            <mxPoint y="13" as="offset" />
          </mxGeometry>
        </mxCell>
        <mxCell id="JDoU0mqT-Fxx7BkTyrQs-115" value="Helps Customers" style="rhombus;whiteSpace=wrap;html=1;" vertex="1" parent="WIyWlLk6GJQsqaUBKTNV-1">
          <mxGeometry x="1390" y="100" width="170" height="100" as="geometry" />
        </mxCell>
        <mxCell id="JDoU0mqT-Fxx7BkTyrQs-116" value="&amp;nbsp;1&amp;nbsp;" style="endArrow=none;html=1;rounded=0;exitX=1;exitY=0;exitDx=0;exitDy=0;entryX=0;entryY=0.5;entryDx=0;entryDy=0;" edge="1" parent="WIyWlLk6GJQsqaUBKTNV-1" source="JDoU0mqT-Fxx7BkTyrQs-88" target="JDoU0mqT-Fxx7BkTyrQs-115">
          <mxGeometry width="50" height="50" relative="1" as="geometry">
            <mxPoint x="1030" y="480" as="sourcePoint" />
            <mxPoint x="1080" y="430" as="targetPoint" />
          </mxGeometry>
        </mxCell>
        <mxCell id="JDoU0mqT-Fxx7BkTyrQs-118" value="" style="endArrow=none;html=1;rounded=0;exitX=0;exitY=0;exitDx=0;exitDy=0;entryX=1;entryY=0.5;entryDx=0;entryDy=0;" edge="1" parent="WIyWlLk6GJQsqaUBKTNV-1" source="JDoU0mqT-Fxx7BkTyrQs-58" target="JDoU0mqT-Fxx7BkTyrQs-115">
          <mxGeometry width="50" height="50" relative="1" as="geometry">
            <mxPoint x="1225" y="890" as="sourcePoint" />
            <mxPoint x="1565" y="430" as="targetPoint" />
          </mxGeometry>
        </mxCell>
        <mxCell id="JDoU0mqT-Fxx7BkTyrQs-119" value="m" style="edgeLabel;html=1;align=center;verticalAlign=middle;resizable=0;points=[];" vertex="1" connectable="0" parent="JDoU0mqT-Fxx7BkTyrQs-118">
          <mxGeometry x="0.4064" y="4" relative="1" as="geometry">
            <mxPoint x="21" y="-4" as="offset" />
          </mxGeometry>
        </mxCell>
        <mxCell id="JDoU0mqT-Fxx7BkTyrQs-120" value="" style="endArrow=none;html=1;rounded=0;entryX=0.5;entryY=1;entryDx=0;entryDy=0;exitX=0.5;exitY=0;exitDx=0;exitDy=0;" edge="1" parent="WIyWlLk6GJQsqaUBKTNV-1" source="JDoU0mqT-Fxx7BkTyrQs-89" target="JDoU0mqT-Fxx7BkTyrQs-115">
          <mxGeometry width="50" height="50" relative="1" as="geometry">
            <mxPoint x="1265" y="600" as="sourcePoint" />
            <mxPoint x="1315" y="550" as="targetPoint" />
          </mxGeometry>
        </mxCell>
        <mxCell id="JDoU0mqT-Fxx7BkTyrQs-121" value="1" style="edgeLabel;html=1;align=center;verticalAlign=middle;resizable=0;points=[];" vertex="1" connectable="0" parent="JDoU0mqT-Fxx7BkTyrQs-120">
          <mxGeometry x="0.3405" y="-1" relative="1" as="geometry">
            <mxPoint x="-1" y="14" as="offset" />
          </mxGeometry>
        </mxCell>
        <mxCell id="JDoU0mqT-Fxx7BkTyrQs-125" value="" style="endArrow=none;html=1;rounded=0;entryX=0.5;entryY=1;entryDx=0;entryDy=0;exitX=0.5;exitY=0;exitDx=0;exitDy=0;" edge="1" parent="WIyWlLk6GJQsqaUBKTNV-1" source="JDoU0mqT-Fxx7BkTyrQs-108" target="JDoU0mqT-Fxx7BkTyrQs-122">
          <mxGeometry width="50" height="50" relative="1" as="geometry">
            <mxPoint x="1475" y="850" as="sourcePoint" />
            <mxPoint x="1475" y="694" as="targetPoint" />
          </mxGeometry>
        </mxCell>
        <mxCell id="JDoU0mqT-Fxx7BkTyrQs-127" value="n" style="edgeLabel;html=1;align=center;verticalAlign=middle;resizable=0;points=[];" vertex="1" connectable="0" parent="JDoU0mqT-Fxx7BkTyrQs-125">
          <mxGeometry x="-0.6608" relative="1" as="geometry">
            <mxPoint y="-13" as="offset" />
          </mxGeometry>
        </mxCell>
        <mxCell id="JDoU0mqT-Fxx7BkTyrQs-122" value="Stores" style="rhombus;whiteSpace=wrap;html=1;" vertex="1" parent="WIyWlLk6GJQsqaUBKTNV-1">
          <mxGeometry x="1436" y="730" width="80" height="80" as="geometry" />
        </mxCell>
        <mxCell id="JDoU0mqT-Fxx7BkTyrQs-130" value="" style="endArrow=none;html=1;rounded=0;entryX=0.25;entryY=0;entryDx=0;entryDy=0;" edge="1" parent="WIyWlLk6GJQsqaUBKTNV-1" source="JDoU0mqT-Fxx7BkTyrQs-133" target="JDoU0mqT-Fxx7BkTyrQs-89">
          <mxGeometry width="50" height="50" relative="1" as="geometry">
            <mxPoint x="1761.1339001706556" y="822.7092585031178" as="sourcePoint" />
            <mxPoint x="1595" y="740" as="targetPoint" />
          </mxGeometry>
        </mxCell>
        <mxCell id="JDoU0mqT-Fxx7BkTyrQs-138" value="&amp;nbsp;1&amp;nbsp;" style="edgeLabel;html=1;align=center;verticalAlign=middle;resizable=0;points=[];" vertex="1" connectable="0" parent="JDoU0mqT-Fxx7BkTyrQs-130">
          <mxGeometry x="0.5456" y="-1" relative="1" as="geometry">
            <mxPoint x="1" as="offset" />
          </mxGeometry>
        </mxCell>
        <mxCell id="JDoU0mqT-Fxx7BkTyrQs-131" value="Checkout Counter" style="rounded=0;whiteSpace=wrap;html=1;" vertex="1" parent="WIyWlLk6GJQsqaUBKTNV-1">
          <mxGeometry x="1235" y="380" width="150" height="60" as="geometry" />
        </mxCell>
        <mxCell id="JDoU0mqT-Fxx7BkTyrQs-132" value="" style="endArrow=none;html=1;rounded=0;entryX=0.5;entryY=0;entryDx=0;entryDy=0;" edge="1" parent="WIyWlLk6GJQsqaUBKTNV-1" source="JDoU0mqT-Fxx7BkTyrQs-131" target="JDoU0mqT-Fxx7BkTyrQs-133">
          <mxGeometry width="50" height="50" relative="1" as="geometry">
            <mxPoint x="1478" y="673" as="sourcePoint" />
            <mxPoint x="1320" y="574" as="targetPoint" />
          </mxGeometry>
        </mxCell>
        <mxCell id="JDoU0mqT-Fxx7BkTyrQs-141" value="&amp;nbsp;n&amp;nbsp;" style="edgeLabel;html=1;align=center;verticalAlign=middle;resizable=0;points=[];" vertex="1" connectable="0" parent="JDoU0mqT-Fxx7BkTyrQs-132">
          <mxGeometry x="-0.7522" y="1" relative="1" as="geometry">
            <mxPoint as="offset" />
          </mxGeometry>
        </mxCell>
        <mxCell id="JDoU0mqT-Fxx7BkTyrQs-133" value="Contains" style="rhombus;whiteSpace=wrap;html=1;" vertex="1" parent="WIyWlLk6GJQsqaUBKTNV-1">
          <mxGeometry x="1270" y="510" width="80" height="80" as="geometry" />
        </mxCell>
        <mxCell id="JDoU0mqT-Fxx7BkTyrQs-137" value="" style="endArrow=none;html=1;rounded=0;exitX=1;exitY=1;exitDx=0;exitDy=0;entryX=0;entryY=0.5;entryDx=0;entryDy=0;" edge="1" parent="WIyWlLk6GJQsqaUBKTNV-1" source="JDoU0mqT-Fxx7BkTyrQs-103" target="JDoU0mqT-Fxx7BkTyrQs-89">
          <mxGeometry width="50" height="50" relative="1" as="geometry">
            <mxPoint x="1200" y="510" as="sourcePoint" />
            <mxPoint x="1250" y="460" as="targetPoint" />
          </mxGeometry>
        </mxCell>
        <mxCell id="JDoU0mqT-Fxx7BkTyrQs-139" value="Manage&amp;nbsp;&lt;div&gt;Checkouts&lt;/div&gt;" style="rhombus;whiteSpace=wrap;html=1;" vertex="1" parent="WIyWlLk6GJQsqaUBKTNV-1">
          <mxGeometry x="990" y="370" width="130" height="80" as="geometry" />
        </mxCell>
        <mxCell id="JDoU0mqT-Fxx7BkTyrQs-140" value="" style="endArrow=none;html=1;rounded=0;entryX=0.5;entryY=1;entryDx=0;entryDy=0;exitX=0;exitY=0;exitDx=0;exitDy=0;" edge="1" parent="WIyWlLk6GJQsqaUBKTNV-1" source="JDoU0mqT-Fxx7BkTyrQs-139" target="JDoU0mqT-Fxx7BkTyrQs-88">
          <mxGeometry width="50" height="50" relative="1" as="geometry">
            <mxPoint x="900" y="430" as="sourcePoint" />
            <mxPoint x="950" y="380" as="targetPoint" />
          </mxGeometry>
        </mxCell>
        <mxCell id="JDoU0mqT-Fxx7BkTyrQs-142" value="m" style="edgeLabel;html=1;align=center;verticalAlign=middle;resizable=0;points=[];" vertex="1" connectable="0" parent="JDoU0mqT-Fxx7BkTyrQs-140">
          <mxGeometry x="-0.0397" y="1" relative="1" as="geometry">
            <mxPoint as="offset" />
          </mxGeometry>
        </mxCell>
        <mxCell id="JDoU0mqT-Fxx7BkTyrQs-143" value="" style="endArrow=none;html=1;rounded=0;exitX=1;exitY=0.5;exitDx=0;exitDy=0;entryX=0;entryY=0.5;entryDx=0;entryDy=0;" edge="1" parent="WIyWlLk6GJQsqaUBKTNV-1" source="JDoU0mqT-Fxx7BkTyrQs-139" target="JDoU0mqT-Fxx7BkTyrQs-131">
          <mxGeometry width="50" height="50" relative="1" as="geometry">
            <mxPoint x="1100" y="500" as="sourcePoint" />
            <mxPoint x="1150" y="450" as="targetPoint" />
          </mxGeometry>
        </mxCell>
        <mxCell id="JDoU0mqT-Fxx7BkTyrQs-144" value="&amp;nbsp;n&amp;nbsp;" style="edgeLabel;html=1;align=center;verticalAlign=middle;resizable=0;points=[];" vertex="1" connectable="0" parent="JDoU0mqT-Fxx7BkTyrQs-143">
          <mxGeometry x="0.2231" relative="1" as="geometry">
            <mxPoint as="offset" />
          </mxGeometry>
        </mxCell>
        <mxCell id="JDoU0mqT-Fxx7BkTyrQs-145" value="Counter ID" style="ellipse;whiteSpace=wrap;html=1;" vertex="1" parent="WIyWlLk6GJQsqaUBKTNV-1">
          <mxGeometry x="1250" y="295" width="120" height="50" as="geometry" />
        </mxCell>
        <mxCell id="JDoU0mqT-Fxx7BkTyrQs-146" value="" style="endArrow=none;html=1;rounded=0;exitX=0.5;exitY=0;exitDx=0;exitDy=0;entryX=0.5;entryY=1;entryDx=0;entryDy=0;" edge="1" parent="WIyWlLk6GJQsqaUBKTNV-1" source="JDoU0mqT-Fxx7BkTyrQs-131" target="JDoU0mqT-Fxx7BkTyrQs-145">
          <mxGeometry width="50" height="50" relative="1" as="geometry">
            <mxPoint x="1310" y="370" as="sourcePoint" />
            <mxPoint x="1360" y="320" as="targetPoint" />
          </mxGeometry>
        </mxCell>
        <mxCell id="JDoU0mqT-Fxx7BkTyrQs-147" value="Order" style="rounded=0;whiteSpace=wrap;html=1;" vertex="1" parent="WIyWlLk6GJQsqaUBKTNV-1">
          <mxGeometry x="1680" y="300" width="120" height="60" as="geometry" />
        </mxCell>
        <mxCell id="JDoU0mqT-Fxx7BkTyrQs-148" value="Places" style="rhombus;whiteSpace=wrap;html=1;" vertex="1" parent="WIyWlLk6GJQsqaUBKTNV-1">
          <mxGeometry x="1890" y="215" width="80" height="80" as="geometry" />
        </mxCell>
        <mxCell id="JDoU0mqT-Fxx7BkTyrQs-149" value="&lt;u&gt;Order ID&lt;/u&gt;" style="ellipse;whiteSpace=wrap;html=1;" vertex="1" parent="WIyWlLk6GJQsqaUBKTNV-1">
          <mxGeometry x="1520" y="345" width="100" height="65" as="geometry" />
        </mxCell>
        <mxCell id="JDoU0mqT-Fxx7BkTyrQs-150" value="&lt;u&gt;Customer ID&lt;/u&gt;" style="ellipse;whiteSpace=wrap;html=1;" vertex="1" parent="WIyWlLk6GJQsqaUBKTNV-1">
          <mxGeometry x="1620" y="430" width="100" height="65" as="geometry" />
        </mxCell>
        <mxCell id="JDoU0mqT-Fxx7BkTyrQs-151" value="Order Date" style="ellipse;whiteSpace=wrap;html=1;" vertex="1" parent="WIyWlLk6GJQsqaUBKTNV-1">
          <mxGeometry x="1756" y="430" width="100" height="65" as="geometry" />
        </mxCell>
        <mxCell id="JDoU0mqT-Fxx7BkTyrQs-152" value="Order ID" style="ellipse;whiteSpace=wrap;html=1;" vertex="1" parent="WIyWlLk6GJQsqaUBKTNV-1">
          <mxGeometry x="1880" y="345" width="100" height="65" as="geometry" />
        </mxCell>
        <mxCell id="JDoU0mqT-Fxx7BkTyrQs-154" value="" style="endArrow=none;html=1;rounded=0;exitX=1;exitY=0.5;exitDx=0;exitDy=0;entryX=0;entryY=0.5;entryDx=0;entryDy=0;" edge="1" parent="WIyWlLk6GJQsqaUBKTNV-1" source="JDoU0mqT-Fxx7BkTyrQs-148" target="JDoU0mqT-Fxx7BkTyrQs-58">
          <mxGeometry width="50" height="50" relative="1" as="geometry">
            <mxPoint x="2080" y="255" as="sourcePoint" />
            <mxPoint x="2130" y="205" as="targetPoint" />
          </mxGeometry>
        </mxCell>
        <mxCell id="JDoU0mqT-Fxx7BkTyrQs-160" value="&amp;nbsp;1&amp;nbsp;" style="edgeLabel;html=1;align=center;verticalAlign=middle;resizable=0;points=[];" vertex="1" connectable="0" parent="JDoU0mqT-Fxx7BkTyrQs-154">
          <mxGeometry x="0.1186" y="-1" relative="1" as="geometry">
            <mxPoint x="-1" as="offset" />
          </mxGeometry>
        </mxCell>
        <mxCell id="JDoU0mqT-Fxx7BkTyrQs-156" value="" style="endArrow=none;html=1;rounded=0;entryX=0;entryY=1;entryDx=0;entryDy=0;exitX=1;exitY=0.5;exitDx=0;exitDy=0;" edge="1" parent="WIyWlLk6GJQsqaUBKTNV-1" source="JDoU0mqT-Fxx7BkTyrQs-147" target="JDoU0mqT-Fxx7BkTyrQs-148">
          <mxGeometry width="50" height="50" relative="1" as="geometry">
            <mxPoint x="1856" y="320" as="sourcePoint" />
            <mxPoint x="1906" y="270" as="targetPoint" />
          </mxGeometry>
        </mxCell>
        <mxCell id="JDoU0mqT-Fxx7BkTyrQs-161" value="&amp;nbsp;n&amp;nbsp;" style="edgeLabel;html=1;align=center;verticalAlign=middle;resizable=0;points=[];" vertex="1" connectable="0" parent="JDoU0mqT-Fxx7BkTyrQs-156">
          <mxGeometry x="0.1309" y="-1" relative="1" as="geometry">
            <mxPoint x="-1" as="offset" />
          </mxGeometry>
        </mxCell>
        <mxCell id="JDoU0mqT-Fxx7BkTyrQs-157" value="Confirms" style="rhombus;whiteSpace=wrap;html=1;" vertex="1" parent="WIyWlLk6GJQsqaUBKTNV-1">
          <mxGeometry x="1330" y="200" width="100" height="80" as="geometry" />
        </mxCell>
        <mxCell id="JDoU0mqT-Fxx7BkTyrQs-158" value="" style="endArrow=none;html=1;rounded=0;exitX=1;exitY=0.5;exitDx=0;exitDy=0;entryX=0;entryY=0.5;entryDx=0;entryDy=0;" edge="1" parent="WIyWlLk6GJQsqaUBKTNV-1" source="JDoU0mqT-Fxx7BkTyrQs-88" target="JDoU0mqT-Fxx7BkTyrQs-157">
          <mxGeometry width="50" height="50" relative="1" as="geometry">
            <mxPoint x="1130" y="290" as="sourcePoint" />
            <mxPoint x="1180" y="240" as="targetPoint" />
          </mxGeometry>
        </mxCell>
        <mxCell id="JDoU0mqT-Fxx7BkTyrQs-159" value="" style="endArrow=none;html=1;rounded=0;exitX=1;exitY=0.5;exitDx=0;exitDy=0;entryX=0;entryY=0.5;entryDx=0;entryDy=0;" edge="1" parent="WIyWlLk6GJQsqaUBKTNV-1" source="JDoU0mqT-Fxx7BkTyrQs-157" target="JDoU0mqT-Fxx7BkTyrQs-147">
          <mxGeometry width="50" height="50" relative="1" as="geometry">
            <mxPoint x="1510" y="280" as="sourcePoint" />
            <mxPoint x="1560" y="230" as="targetPoint" />
          </mxGeometry>
        </mxCell>
      </root>
    </mxGraphModel>
  </diagram>
</mxfile>
